<svg xmlns="http://www.w3.org/2000/svg" width="14" height="16" viewBox="0 0 14 16" fill="none"><g id="Bag"><path id="Path_33955" fill-rule="evenodd" clip-rule="evenodd" d="M10.0091 14.3329H4.44386C2.39962 14.3329 0.831353 13.5945 1.27681 10.6227L1.7955 6.59526C2.0701 5.11243 3.01595 4.54492 3.84585 4.54492H10.6315C11.4736 4.54492 12.3645 5.15514 12.6818 6.59526L13.2005 10.6227C13.5789 13.2589 12.0533 14.3329 10.0091 14.3329Z" stroke="#131313" stroke-width="1.5" stroke-linecap="round" stroke-linejoin="round"></path><path id="Path_33956" d="M10.1006 4.39882C10.1006 2.80811 8.81104 1.51858 7.22033 1.51858V1.51858C6.45433 1.51533 5.71859 1.81735 5.1758 2.35786C4.633 2.89836 4.32787 3.63282 4.32788 4.39882H4.32788" stroke="#131313" stroke-width="1.5" stroke-linecap="round" stroke-linejoin="round"></path><path id="Line_192" d="M9.19756 7.40081H9.16705" stroke="#131313" stroke-width="1.5" stroke-linecap="round" stroke-linejoin="round"></path><path id="Line_193" d="M5.31036 7.40081H5.27985" stroke="#131313" stroke-width="1.5" stroke-linecap="round" stroke-linejoin="round"></path></g></svg>