<svg xmlns="http://www.w3.org/2000/svg" width="186" height="85" viewBox="0 0 186 85" fill="none"><g id="Group 20"><path id="Vector" d="M14.9 81.3497L8.13148 61.5497H0V62.2219C2.22222 62.2219 3.04074 62.3182 3.04074 64.4164V81.6386C3.04074 83.7349 2.22407 83.8312 0 83.8312V84.5034H7.49074V83.8312C5.26852 83.8312 4.45 83.7349 4.45 81.6386V65.6164L10.9 84.5053H15.1722L20.9352 65.6164V81.6367C20.9352 83.733 20.1185 83.8293 17.8944 83.8293V84.5016H29.3852V83.8293C27.163 83.8293 26.3444 83.733 26.3444 81.6367V64.4145C26.3444 62.3164 27.1611 62.2201 29.3852 62.2201V61.5479H20.9352L14.9 81.3497Z" fill="url(#paint0_linear_1479_1554)"></path><path id="Vector_2" d="M52.8851 83.3813H43.8425V73.0905H50.7073C52.3888 73.0905 53.1147 73.5535 53.1147 75.6998H53.7221V69.9998H53.1147C53.1147 71.5035 52.3943 71.9683 50.7073 71.9683H43.8425V62.6702H52.7314C54.748 62.6702 55.324 63.3757 55.324 67.3442H56.0647V61.5498H35.3906V62.222C37.6128 62.222 38.4332 62.3183 38.4332 64.4165V81.6387C38.4332 83.735 37.6166 83.8313 35.3906 83.8313V84.5035H56.2147V78.7035H55.474C55.4777 82.6776 54.9017 83.3813 52.8851 83.3813Z" fill="url(#paint1_linear_1479_1554)"></path><path id="Vector_3" d="M64.4148 67.3442H65.1555C65.1555 63.3757 65.7315 62.6702 67.7481 62.6702H72.5833V81.6368C72.5833 83.7331 71.4463 83.8294 69.5407 83.8294V84.5017H81.0333V83.8294C79.1278 83.8294 77.9926 83.7331 77.9926 81.6368V62.6702H82.8259C84.8426 62.6702 85.4185 63.3757 85.4185 67.3442H86.1592V61.5498H64.4148V67.3442Z" fill="url(#paint2_linear_1479_1554)"></path><path id="Vector_4" d="M93.4722 62.222C95.6944 62.222 96.5129 62.3183 96.5129 64.4165V81.6387C96.5129 83.735 95.6962 83.8313 93.4722 83.8313V84.5035H104.954V83.8313C102.731 83.8313 101.913 83.735 101.913 81.6387V64.4165C101.913 62.3183 102.73 62.222 104.954 62.222V61.5498H93.4722V62.222Z" fill="url(#paint3_linear_1479_1554)"></path><path id="Vector_5" d="M123.598 70.8812L121.918 70.1608C120.078 69.2979 118.605 68.033 118.605 65.8886C118.605 63.5997 120.302 62.3516 122.591 62.3516C125.791 62.3516 129.168 63.7905 129.168 67.3516H129.909V61.5497H129.168C129.168 62.3349 129.041 62.846 128.72 62.846C128.656 62.8452 128.592 62.8293 128.535 62.7997C126.441 61.7457 124.125 61.2079 121.781 61.2312C116.276 61.2312 113.281 63.5034 113.281 67.1053C113.281 71.6979 118.115 73.7719 121.781 75.2349C124.518 76.346 125.878 77.6997 125.878 79.6793C125.878 82.2867 124.211 83.696 121.461 83.696C118.355 83.696 113.891 81.9201 113.891 78.696H113.15V84.4904H113.891C113.891 83.4497 114.033 83.0664 114.339 83.0664C114.47 83.0832 114.596 83.1267 114.709 83.1942C116.918 84.2515 119.334 84.8037 121.783 84.8108C127.93 84.8108 131.194 82.746 131.194 78.6497C131.202 74.0516 127.072 72.3219 123.598 70.8812Z" fill="url(#paint4_linear_1479_1554)"></path><path id="Vector_6" d="M149.855 70.8812L148.176 70.1608C146.335 69.2979 144.863 68.033 144.863 65.8886C144.863 63.5997 146.559 62.3516 148.848 62.3516C152.05 62.3516 155.426 63.7905 155.426 67.3516H156.166V61.5497H155.426C155.426 62.3349 155.298 62.846 154.978 62.846C154.913 62.8449 154.85 62.8291 154.792 62.7997C152.698 61.7457 150.383 61.2079 148.039 61.2312C142.533 61.2312 139.539 63.5034 139.539 67.1053C139.539 71.6979 144.374 73.7719 148.039 75.2349C150.776 76.346 152.137 77.6997 152.137 79.6793C152.137 82.2867 150.47 83.696 147.718 83.696C144.613 83.696 140.148 81.9201 140.148 78.696H139.407V84.4904H140.148C140.148 83.4497 140.292 83.0664 140.596 83.0664C140.727 83.0829 140.853 83.1264 140.966 83.1942C143.175 84.2515 145.592 84.8037 148.041 84.8108C154.187 84.8108 157.452 82.746 157.452 78.6497C157.459 74.0516 153.333 72.3219 149.855 70.8812Z" fill="url(#paint5_linear_1479_1554)"></path><path id="Vector_7" d="M184.444 78.7035C184.444 82.6739 183.868 83.3776 181.852 83.3776H172.813V73.0905H179.679C181.359 73.0905 182.087 73.5535 182.087 75.6998H182.696V69.9998H182.087C182.087 71.5035 181.367 71.9683 179.679 71.9683H172.813V62.6702H181.702C183.718 62.6702 184.294 63.3757 184.294 67.3442H185.035V61.5498H164.363V62.222C166.585 62.222 167.404 62.3183 167.404 64.4165V81.6387C167.404 83.735 166.587 83.8313 164.363 83.8313V84.5035H185.185V78.7035H184.444Z" fill="url(#paint6_linear_1479_1554)"></path><path id="Vector_8" d="M80.2535 34.6426C79.6295 35.7204 78.8832 36.1333 76.6684 36.1333V37.4593H108.518V36.1389C106.296 36.1389 105.555 35.7204 104.933 34.6426L96.1313 19.4074C96.0112 19.1987 95.9481 18.9621 95.9481 18.7213C95.9481 18.4805 96.0112 18.2439 96.1313 18.0352L104.931 2.80926C105.555 1.73148 106.302 1.31852 108.517 1.31852V0H76.6665V1.32593C78.8795 1.32593 79.6295 1.73889 80.2517 2.81666L89.0517 18.0426C89.1718 18.2513 89.235 18.4879 89.235 18.7287C89.235 18.9695 89.1718 19.2061 89.0517 19.4148L80.2535 34.6426ZM90.898 27.0981L92.5924 24.1648L94.2869 27.0981H90.898ZM95.0461 28.4148L96.7906 31.4352H88.3943L90.1387 28.4148H95.0461ZM86.1109 32.7518H99.0739L80.9258 1.31852H104.259L94.9739 17.4074L93.3535 14.5963L99.0739 4.69074H86.1109L104.259 36.1333H80.9147L90.2072 20.0389L91.8313 22.85L86.1109 32.7518ZM94.285 10.3444L92.5924 13.2759L90.898 10.3407L94.285 10.3444ZM90.1369 9.02778L88.3924 6.01111H96.7887L95.0443 9.02778H90.1369Z" fill="url(#paint7_linear_1479_1554)"></path></g><defs><linearGradient id="paint0_linear_1479_1554" x1="-1.31667" y1="73.0256" x2="181.061" y2="73.0256" gradientUnits="userSpaceOnUse"><stop stop-color="#BF803F"></stop><stop offset="1" stop-color="#D9AF5D"></stop></linearGradient><linearGradient id="paint1_linear_1479_1554" x1="-1.31678" y1="73.0257" x2="181.061" y2="73.0257" gradientUnits="userSpaceOnUse"><stop stop-color="#BF803F"></stop><stop offset="1" stop-color="#D9AF5D"></stop></linearGradient><linearGradient id="paint2_linear_1479_1554" x1="-1.31669" y1="73.0257" x2="181.061" y2="73.0257" gradientUnits="userSpaceOnUse"><stop stop-color="#BF803F"></stop><stop offset="1" stop-color="#D9AF5D"></stop></linearGradient><linearGradient id="paint3_linear_1479_1554" x1="-1.31673" y1="73.0257" x2="181.061" y2="73.0257" gradientUnits="userSpaceOnUse"><stop stop-color="#BF803F"></stop><stop offset="1" stop-color="#D9AF5D"></stop></linearGradient><linearGradient id="paint4_linear_1479_1554" x1="-1.31676" y1="73.0256" x2="181.061" y2="73.0256" gradientUnits="userSpaceOnUse"><stop stop-color="#BF803F"></stop><stop offset="1" stop-color="#D9AF5D"></stop></linearGradient><linearGradient id="paint5_linear_1479_1554" x1="-1.31685" y1="73.0256" x2="181.061" y2="73.0256" gradientUnits="userSpaceOnUse"><stop stop-color="#BF803F"></stop><stop offset="1" stop-color="#D9AF5D"></stop></linearGradient><linearGradient id="paint6_linear_1479_1554" x1="-1.31683" y1="73.0257" x2="181.061" y2="73.0257" gradientUnits="userSpaceOnUse"><stop stop-color="#BF803F"></stop><stop offset="1" stop-color="#D9AF5D"></stop></linearGradient><linearGradient id="paint7_linear_1479_1554" x1="-1.31683" y1="18.7259" x2="181.061" y2="18.7259" gradientUnits="userSpaceOnUse"><stop stop-color="#BF803F"></stop><stop offset="1" stop-color="#D9AF5D"></stop></linearGradient></defs></svg>