<svg xmlns="http://www.w3.org/2000/svg" width="113" height="20" viewBox="0 0 113 20" fill="none"><g id="Group 17"><g id="Group 16"><path id="Vector" d="M32.0318 15.1516L28.8176 1.71665H24.9562V2.17278C26.0115 2.17278 26.4002 2.23811 26.4002 3.66177V15.3476C26.4002 16.77 26.0124 16.8353 24.9562 16.8353V17.2915H28.5134V16.8353C27.4581 16.8353 27.0694 16.77 27.0694 15.3476V4.47601L30.1323 17.2927H32.1611L34.8977 4.47601V15.3463C34.8977 16.7687 34.5099 16.8341 33.4538 16.8341V17.2902H38.9104V16.8341C37.8551 16.8341 37.4664 16.7687 37.4664 15.3463V3.66052C37.4664 2.23686 37.8542 2.17152 38.9104 2.17152V1.71539H34.8977L32.0318 15.1516Z" fill="#131313"></path><path id="Vector_2" d="M50.0699 16.53H45.7758V9.54737H49.0357C49.8342 9.54737 50.1789 9.8615 50.1789 11.3178H50.4673V7.4502H50.1789C50.1789 8.47051 49.8368 8.7859 49.0357 8.7859H45.7758V2.47682H49.9969C50.9545 2.47682 51.228 2.95556 51.228 5.64832H51.5798V1.71661H41.7623V2.17274C42.8175 2.17274 43.2071 2.23808 43.2071 3.66173V15.3475C43.2071 16.7699 42.8193 16.8353 41.7623 16.8353V17.2914H51.651V13.3559H51.2992C51.301 16.0525 51.0275 16.53 50.0699 16.53Z" fill="#131313"></path><path id="Vector_3" d="M55.545 5.64832H55.8967C55.8967 2.95556 56.1702 2.47682 57.1279 2.47682H59.424V15.3463C59.424 16.7687 58.884 16.834 57.9791 16.834V17.2902H63.4366V16.834C62.5317 16.834 61.9927 16.7687 61.9927 15.3463V2.47682H64.2879C65.2455 2.47682 65.519 2.95556 65.519 5.64832H65.8708V1.71661H55.545V5.64832Z" fill="#131313"></path><path id="Vector_4" d="M69.3434 2.17274C70.3987 2.17274 70.7873 2.23808 70.7873 3.66173V15.3475C70.7873 16.7699 70.3995 16.8353 69.3434 16.8353V17.2914H74.7956V16.8353C73.7403 16.8353 73.3516 16.7699 73.3516 15.3475V3.66173C73.3516 2.23808 73.7395 2.17274 74.7956 2.17274V1.71661H69.3434V2.17274Z" fill="#131313"></path><path id="Vector_5" d="M83.6493 8.04832L82.8516 7.55952C81.9775 6.97397 81.2784 6.11576 81.2784 4.66068C81.2784 3.1076 82.0839 2.2607 83.1709 2.2607C84.6905 2.2607 86.2945 3.23703 86.2945 5.65335H86.6462V1.71661H86.2945C86.2945 2.24939 86.2338 2.59619 86.0816 2.59619C86.051 2.59563 86.0209 2.58487 85.9937 2.56478C84.9994 1.8496 83.8997 1.48469 82.7866 1.50049C80.1722 1.50049 78.7502 3.04226 78.7502 5.48623C78.7502 8.60245 81.0454 10.0098 82.7866 11.0024C84.0863 11.7564 84.7318 12.6749 84.7318 14.0181C84.7318 15.7873 83.9403 16.7436 82.6344 16.7436C81.1597 16.7436 79.0395 15.5385 79.0395 13.3509H78.6877V17.2826H79.0395C79.0395 16.5764 79.1072 16.3163 79.2523 16.3163C79.3145 16.3278 79.3743 16.3573 79.4282 16.403C80.4771 17.1205 81.6246 17.4952 82.7875 17.5C85.7061 17.5 87.2565 16.099 87.2565 13.3195C87.26 10.1995 85.299 9.0259 83.6493 8.04832Z" fill="#131313"></path><path id="Vector_6" d="M96.1181 8.04832L95.3205 7.55952C94.4464 6.97397 93.7473 6.11576 93.7473 4.66068C93.7473 3.1076 94.5528 2.2607 95.6397 2.2607C97.1602 2.2607 98.7633 3.23703 98.7633 5.65335H99.1151V1.71661H98.7633C98.7633 2.24939 98.7027 2.59619 98.5505 2.59619C98.5199 2.59545 98.4898 2.5847 98.4626 2.56478C97.4682 1.8496 96.3686 1.48469 95.2554 1.50049C92.641 1.50049 91.2191 3.04226 91.2191 5.48623C91.2191 8.60245 93.5151 10.0098 95.2554 11.0024C96.5552 11.7564 97.2015 12.6749 97.2015 14.0181C97.2015 15.7873 96.4101 16.7436 95.1033 16.7436C93.6286 16.7436 91.5084 15.5385 91.5084 13.3509H91.1566V17.2826H91.5084C91.5084 16.5764 91.577 16.3163 91.7212 16.3163C91.7834 16.3276 91.8433 16.3571 91.8971 16.403C92.9459 17.1205 94.0935 17.4952 95.2563 17.5C98.175 17.5 99.7254 16.099 99.7254 13.3195C99.7289 10.1995 97.7696 9.0259 96.1181 8.04832Z" fill="#131313"></path><path id="Vector_7" d="M112.543 13.3559C112.543 16.05 112.27 16.5274 111.312 16.5274H107.02V9.54737H110.281C111.078 9.54737 111.424 9.8615 111.424 11.3178H111.713V7.4502H111.424C111.424 8.47051 111.082 8.7859 110.281 8.7859H107.02V2.47682H111.241C112.199 2.47682 112.472 2.95556 112.472 5.64832H112.824V1.71661H103.007V2.17274C104.063 2.17274 104.451 2.23808 104.451 3.66173V15.3475C104.451 16.7699 104.063 16.8353 103.007 16.8353V17.2914H112.895V13.3559H112.543Z" fill="#131313"></path></g><path id="Vector_8" d="M1.9134 18.497C1.581 19.0722 1.182 19.2922 0 19.2918V20H17.0004V19.2956C15.819 19.2918 15.4204 19.0722 15.087 18.497L10.3896 10.3638C10.3252 10.2524 10.2914 10.1261 10.2914 9.9975C10.2914 9.86889 10.3252 9.74255 10.3896 9.6312L15.0874 1.503C15.4204 0.9278 15.8188 0.7078 17.0004 0.7082V0H0.000399933V0.7082C1.1818 0.7082 1.5814 0.9282 1.9138 1.503L6.6112 9.6312C6.67556 9.74255 6.70944 9.86889 6.70944 9.9975C6.70944 10.1261 6.67556 10.2524 6.6112 10.3638L1.9134 18.497ZM7.5964 14.4692L8.5004 12.903L9.4044 14.4692H7.5964ZM9.8104 15.1722L10.7414 16.7844H6.2604L7.1914 15.1722H9.8104ZM5.0416 17.4874H11.9592L2.2708 0.7074H14.7308L9.772 9.2944L8.9064 7.7944L11.9592 2.5074H5.0416L14.7342 19.2918H2.2666L7.2274 10.7L8.0944 12.201L5.0416 17.4874ZM9.4044 5.5244L8.5004 7.0906L7.5964 5.5244H9.4044ZM7.1904 4.8214L6.2604 3.2104H10.7424L9.8104 4.8214H7.1904Z" fill="black"></path></g></svg>