<svg xmlns="http://www.w3.org/2000/svg" width="28" height="27" viewBox="0 0 28 27" fill="none"><path opacity="0.7" d="M14.125 6.51172C17.8164 6.51172 20.8633 9.55859 20.8633 13.25C20.8633 17 17.8164 19.9883 14.125 19.9883C10.375 19.9883 7.38672 17 7.38672 13.25C7.38672 9.55859 10.375 6.51172 14.125 6.51172ZM14.125 17.6445C16.5273 17.6445 18.4609 15.7109 18.4609 13.25C18.4609 10.8477 16.5273 8.91406 14.125 8.91406C11.6641 8.91406 9.73047 10.8477 9.73047 13.25C9.73047 15.7109 11.7227 17.6445 14.125 17.6445ZM22.6797 6.27734C22.6797 7.15625 21.9766 7.85938 21.0977 7.85938C20.2188 7.85938 19.5156 7.15625 19.5156 6.27734C19.5156 5.39844 20.2188 4.69531 21.0977 4.69531C21.9766 4.69531 22.6797 5.39844 22.6797 6.27734ZM27.1328 7.85938C27.25 10.0273 27.25 16.5312 27.1328 18.6992C27.0156 20.8086 26.5469 22.625 25.0234 24.207C23.5 25.7305 21.625 26.1992 19.5156 26.3164C17.3477 26.4336 10.8438 26.4336 8.67578 26.3164C6.56641 26.1992 4.75 25.7305 3.16797 24.207C1.64453 22.625 1.17578 20.8086 1.05859 18.6992C0.941406 16.5312 0.941406 10.0273 1.05859 7.85938C1.17578 5.75 1.64453 3.875 3.16797 2.35156C4.75 0.828125 6.56641 0.359375 8.67578 0.242188C10.8438 0.125 17.3477 0.125 19.5156 0.242188C21.625 0.359375 23.5 0.828125 25.0234 2.35156C26.5469 3.875 27.0156 5.75 27.1328 7.85938ZM24.3203 20.9844C25.0234 19.2852 24.8477 15.1836 24.8477 13.25C24.8477 11.375 25.0234 7.27344 24.3203 5.51562C23.8516 4.40234 22.9727 3.46484 21.8594 3.05469C20.1016 2.35156 16 2.52734 14.125 2.52734C12.1914 2.52734 8.08984 2.35156 6.39062 3.05469C5.21875 3.52344 4.33984 4.40234 3.87109 5.51562C3.16797 7.27344 3.34375 11.375 3.34375 13.25C3.34375 15.1836 3.16797 19.2852 3.87109 20.9844C4.33984 22.1562 5.21875 23.0352 6.39062 23.5039C8.08984 24.207 12.1914 24.0312 14.125 24.0312C16 24.0312 20.1016 24.207 21.8594 23.5039C22.9727 23.0352 23.9102 22.1562 24.3203 20.9844Z" fill="black"></path></svg>