<svg xmlns="http://www.w3.org/2000/svg" width="24" height="25" viewBox="0 0 24 25" fill="none"><g id="Twitter - Original"><path id="Vector" d="M7.54752 22.2508C16.6042 22.2508 21.5578 14.7474 21.5578 8.24052C21.5578 8.0274 21.5578 7.81524 21.5434 7.60404C22.507 6.907 23.3389 6.04392 24 5.05524C23.1014 5.45364 22.148 5.7148 21.1718 5.82996C22.1998 5.21465 22.9692 4.24674 23.3366 3.10644C22.3701 3.68005 21.3126 4.08427 20.2099 4.30164C19.4675 3.51222 18.4856 2.98948 17.4162 2.81432C16.3468 2.63917 15.2494 2.82135 14.294 3.33269C13.3385 3.84403 12.5782 4.65601 12.1307 5.64299C11.6833 6.62996 11.5735 7.73691 11.8186 8.79252C9.8609 8.69432 7.94576 8.18555 6.19745 7.29924C4.44915 6.41294 2.90676 5.1689 1.6704 3.64788C1.04073 4.73188 0.847872 6.01511 1.1311 7.2363C1.41433 8.4575 2.15234 9.52483 3.19488 10.221C2.41123 10.198 1.64465 9.98663 0.96 9.60468V9.66708C0.960311 10.8039 1.35385 11.9057 2.07387 12.7854C2.79389 13.6652 3.79606 14.2689 4.9104 14.494C4.18548 14.6917 3.42487 14.7206 2.68704 14.5784C3.00181 15.5568 3.61443 16.4123 4.43924 17.0254C5.26405 17.6385 6.25983 17.9785 7.28736 17.998C6.26644 18.8004 5.09731 19.3938 3.84687 19.744C2.59643 20.0942 1.28921 20.1944 0 20.0389C2.25183 21.4839 4.87192 22.2504 7.54752 22.2469" fill="#1DA1F2"></path></g></svg>