<svg width="18" height="19" viewBox="0 0 18 19" fill="none" xmlns="http://www.w3.org/2000/svg">
<path d="M13.2436 15.2271H4.82146C4.44515 15.2271 4.02404 14.9314 3.8986 14.573L0.189278 4.19763C-0.339346 2.71032 0.278875 2.25337 1.55116 3.16726L5.04545 5.66703C5.62783 6.07021 6.29085 5.86414 6.54172 5.21008L8.11863 1.00797C8.62038 -0.33599 9.45363 -0.33599 9.95538 1.00797L11.5323 5.21008C11.7832 5.86414 12.4462 6.07021 13.0196 5.66703L16.2989 3.32854C17.6966 2.32505 18.3686 2.83575 17.7951 4.45746L14.1754 14.5909C14.041 14.9314 13.6199 15.2271 13.2436 15.2271Z" fill="#FB9CA4"/>
<path d="M4.10474 17.9329H13.9604" stroke="#3C42E0" stroke-width="1.5" stroke-linecap="round" stroke-linejoin="round"/>
<path d="M6.79266 10.7651H11.2725" stroke="#3C42E0" stroke-width="1.5" stroke-linecap="round" stroke-linejoin="round"/>
</svg>
