<svg width="18" height="17" viewBox="0 0 18 17" fill="none" xmlns="http://www.w3.org/2000/svg">
<path opacity="0.4" d="M0 9.28237L0 7.69916C0 6.76363 0.764618 5.99002 1.70915 5.99002C3.33733 5.99002 4.003 4.83859 3.18441 3.4263C2.71664 2.6167 2.9955 1.56423 3.81409 1.09646L5.37031 0.205908C6.08096 -0.21688 6.9985 0.0349938 7.42129 0.745638L7.52024 0.916553C8.32983 2.32885 9.66117 2.32885 10.4798 0.916553L10.5787 0.745638C11.0015 0.0349938 11.919 -0.21688 12.6297 0.205908L14.1859 1.09646C15.0045 1.56423 15.2834 2.6167 14.8156 3.4263C13.997 4.83859 14.6627 5.99002 16.2909 5.99002C17.2264 5.99002 18 6.75463 18 7.69916V9.28237C18 10.2179 17.2354 10.9915 16.2909 10.9915C14.6627 10.9915 13.997 12.1429 14.8156 13.5552C15.2834 14.3738 15.0045 15.4173 14.1859 15.8851L12.6297 16.7756C11.919 17.1984 11.0015 16.9465 10.5787 16.2359L10.4798 16.065C9.67016 14.6527 8.33883 14.6527 7.52024 16.065L7.42129 16.2359C6.9985 16.9465 6.08096 17.1984 5.37031 16.7756L3.81409 15.8851C2.9955 15.4173 2.71664 14.3648 3.18441 13.5552C4.003 12.1429 3.33733 10.9915 1.70915 10.9915C0.764618 10.9915 0 10.2179 0 9.28237Z" fill="#FB9CA4"/>
<path d="M8.99553 11.4142C10.6102 11.4142 11.9191 10.1053 11.9191 8.49068C11.9191 6.87605 10.6102 5.56714 8.99553 5.56714C7.3809 5.56714 6.07199 6.87605 6.07199 8.49068C6.07199 10.1053 7.3809 11.4142 8.99553 11.4142Z" fill="#3C42E0"/>
</svg>
