<svg width="16" height="16" viewBox="0 0 16 16" fill="none" xmlns="http://www.w3.org/2000/svg">
<path opacity="0.7" d="M16 5.216V1.584C16 0.456 15.488 0 14.216 0H10.984C9.71201 0 9.20001 0.456 9.20001 1.584V5.208C9.20001 6.344 9.71201 6.792 10.984 6.792H14.216C15.488 6.8 16 6.344 16 5.216Z" fill="#FB9CA4"/>
<path d="M16 14.216V10.984C16 9.71195 15.488 9.19995 14.216 9.19995H10.984C9.71201 9.19995 9.20001 9.71195 9.20001 10.984V14.216C9.20001 15.488 9.71201 16 10.984 16H14.216C15.488 16 16 15.488 16 14.216Z" fill="#3C42E0"/>
<path d="M6.8 5.216V1.584C6.8 0.456 6.288 0 5.016 0H1.784C0.512 0 0 0.456 0 1.584V5.208C0 6.344 0.512 6.792 1.784 6.792H5.016C6.288 6.8 6.8 6.344 6.8 5.216Z" fill="#3C42E0"/>
<path opacity="0.7" d="M6.8 14.216V10.984C6.8 9.71195 6.288 9.19995 5.016 9.19995H1.784C0.512 9.19995 0 9.71195 0 10.984V14.216C0 15.488 0.512 16 1.784 16H5.016C6.288 16 6.8 15.488 6.8 14.216Z" fill="#FB9CA4"/>
</svg>
