<svg width="18" height="16" viewBox="0 0 18 16" fill="none" xmlns="http://www.w3.org/2000/svg">
<path d="M7.69066 1.73717L1.20522 12.5641C1.07151 12.7957 1.00075 13.0582 1.00001 13.3256C0.999257 13.593 1.06854 13.8559 1.20095 14.0882C1.33337 14.3205 1.52431 14.5141 1.75477 14.6497C1.98523 14.7853 2.24718 14.8582 2.51456 14.8612H15.4854C15.7528 14.8582 16.0148 14.7853 16.2452 14.6497C16.4757 14.5141 16.6666 14.3205 16.799 14.0882C16.9315 13.8559 17.0007 13.593 17 13.3256C16.9992 13.0582 16.9285 12.7957 16.7948 12.5641L10.3093 1.73717C10.1728 1.51214 9.98064 1.32608 9.7513 1.19696C9.52195 1.06783 9.2632 1 9 1C8.7368 1 8.47805 1.06783 8.2487 1.19696C8.01936 1.32608 7.82716 1.51214 7.69066 1.73717Z" stroke="#FD4B6B" stroke-width="2" stroke-linecap="round" stroke-linejoin="round"/>
<path d="M9 5.67285V8.73563" stroke="#FD4B6B" stroke-width="2" stroke-linecap="round" stroke-linejoin="round"/>
<path d="M9 11.7984H9.00894" stroke="#FD4B6B" stroke-width="2" stroke-linecap="round" stroke-linejoin="round"/>
</svg>
