<svg width="186" height="95" viewBox="0 0 186 95" fill="none" xmlns="http://www.w3.org/2000/svg">
<g id="Group 19">
<path id="Vector" d="M14.9 90.2668L8.13148 68.2965H0V69.0424C2.22222 69.0424 3.04074 69.1492 3.04074 71.4774V90.5873C3.04074 92.9134 2.22407 93.0203 0 93.0203V93.7662H7.49074V93.0203C5.26852 93.0203 4.45 92.9134 4.45 90.5873V72.8089L10.9 93.7682H15.1722L20.9352 72.8089V90.5853C20.9352 92.9114 20.1185 93.0182 17.8944 93.0182V93.7641H29.3852V93.0182C27.163 93.0182 26.3444 92.9114 26.3444 90.5853V71.4753C26.3444 69.1472 27.1611 69.0403 29.3852 69.0403V68.2944H20.9352L14.9 90.2668Z" fill="#131313"/>
<path id="Vector_2" d="M52.8851 92.521H43.8425V81.1023H50.7073C52.3888 81.1023 53.1147 81.616 53.1147 83.9976H53.7221V77.6728H53.1147C53.1147 79.3413 52.3943 79.8571 50.7073 79.8571H43.8425V69.5398H52.7314C54.748 69.5398 55.324 70.3227 55.324 74.7262H56.0647V68.2966H35.3906V69.0425C37.6128 69.0425 38.4332 69.1494 38.4332 71.4775V90.5874C38.4332 92.9135 37.6166 93.0204 35.3906 93.0204V93.7663H56.2147V87.3305H55.474C55.4777 91.7402 54.9017 92.521 52.8851 92.521Z" fill="#131313"/>
<path id="Vector_3" d="M64.4148 74.7262H65.1555C65.1555 70.3227 65.7315 69.5398 67.7481 69.5398H72.5833V90.5854C72.5833 92.9115 71.4463 93.0183 69.5407 93.0183V93.7642H81.0333V93.0183C79.1278 93.0183 77.9926 92.9115 77.9926 90.5854V69.5398H82.8259C84.8426 69.5398 85.4185 70.3227 85.4185 74.7262H86.1592V68.2966H64.4148V74.7262Z" fill="#131313"/>
<path id="Vector_4" d="M93.4722 69.0425C95.6944 69.0425 96.5129 69.1494 96.5129 71.4775V90.5874C96.5129 92.9135 95.6962 93.0204 93.4722 93.0204V93.7663H104.954V93.0204C102.731 93.0204 101.913 92.9135 101.913 90.5874V71.4775C101.913 69.1494 102.73 69.0425 104.954 69.0425V68.2966H93.4722V69.0425Z" fill="#131313"/>
<path id="Vector_5" d="M123.598 78.6508L121.918 77.8515C120.078 76.8939 118.605 75.4905 118.605 73.111C118.605 70.5712 120.302 69.1862 122.591 69.1862C125.791 69.1862 129.168 70.7828 129.168 74.7343H129.909V68.2965H129.168C129.168 69.1677 129.041 69.7349 128.72 69.7349C128.656 69.734 128.592 69.7164 128.535 69.6835C126.441 68.514 124.125 67.9172 121.781 67.9431C116.276 67.9431 113.281 70.4643 113.281 74.461C113.281 79.557 118.115 81.8584 121.781 83.4817C124.518 84.7146 125.878 86.2167 125.878 88.4133C125.878 91.3065 124.211 92.8703 121.461 92.8703C118.355 92.8703 113.891 90.8997 113.891 87.3222H113.15V93.7518H113.891C113.891 92.597 114.033 92.1716 114.339 92.1716C114.47 92.1903 114.596 92.2385 114.709 92.3134C116.918 93.4866 119.334 94.0994 121.783 94.1073C127.93 94.1073 131.194 91.8161 131.194 87.2708C131.202 82.1687 127.072 80.2495 123.598 78.6508Z" fill="#131313"/>
<path id="Vector_6" d="M149.855 78.6508L148.176 77.8515C146.335 76.8939 144.863 75.4905 144.863 73.111C144.863 70.5712 146.559 69.1862 148.848 69.1862C152.05 69.1862 155.426 70.7828 155.426 74.7343H156.166V68.2965H155.426C155.426 69.1677 155.298 69.7349 154.978 69.7349C154.913 69.7337 154.85 69.7161 154.792 69.6835C152.698 68.514 150.383 67.9172 148.039 67.9431C142.533 67.9431 139.539 70.4643 139.539 74.461C139.539 79.557 144.374 81.8584 148.039 83.4817C150.776 84.7146 152.137 86.2167 152.137 88.4133C152.137 91.3065 150.47 92.8703 147.718 92.8703C144.613 92.8703 140.148 90.8997 140.148 87.3222H139.407V93.7518H140.148C140.148 92.597 140.292 92.1716 140.596 92.1716C140.727 92.19 140.853 92.2383 140.966 92.3134C143.175 93.4866 145.592 94.0994 148.041 94.1073C154.187 94.1073 157.452 91.8161 157.452 87.2708C157.459 82.1687 153.333 80.2495 149.855 78.6508Z" fill="#131313"/>
<path id="Vector_7" d="M184.444 87.3305C184.444 91.7361 183.868 92.5169 181.852 92.5169H172.813V81.1023H179.679C181.359 81.1023 182.087 81.616 182.087 83.9976H182.696V77.6728H182.087C182.087 79.3413 181.367 79.8571 179.679 79.8571H172.813V69.5398H181.702C183.718 69.5398 184.294 70.3227 184.294 74.7262H185.035V68.2966H164.363V69.0425C166.585 69.0425 167.404 69.1494 167.404 71.4775V90.5874C167.404 92.9135 166.587 93.0204 164.363 93.0204V93.7663H185.185V87.3305H184.444Z" fill="#131313"/>
<path id="Vector_8" d="M80.2535 38.4398C79.6295 39.6357 78.8832 40.0939 76.6684 40.0939V41.5652H108.518V40.1001C106.296 40.1001 105.555 39.6357 104.933 38.4398L96.1313 21.5347C96.0112 21.3031 95.9481 21.0405 95.9481 20.7734C95.9481 20.5062 96.0112 20.2436 96.1313 20.012L104.931 3.11719C105.555 1.92127 106.302 1.46304 108.517 1.46304V0H76.6665V1.47126C78.8795 1.47126 79.6295 1.92949 80.2517 3.1254L89.0517 20.0203C89.1718 20.2519 89.235 20.5144 89.235 20.7816C89.235 21.0488 89.1718 21.3113 89.0517 21.5429L80.2535 38.4398ZM90.898 30.0684L92.5924 26.8135L94.2869 30.0684H90.898ZM95.0461 31.5294L96.7906 34.8808H88.3943L90.1387 31.5294H95.0461ZM86.1109 36.3418H99.0739L80.9258 1.46304H104.259L94.9739 19.3154L93.3535 16.1962L99.0739 5.20489H86.1109L104.259 40.0939H80.9147L90.2072 22.2354L91.8313 25.3546L86.1109 36.3418ZM94.285 11.4783L92.5924 14.7311L90.898 11.4742L94.285 11.4783ZM90.1369 10.0173L88.3924 6.66999H96.7887L95.0443 10.0173H90.1369Z" fill="#131313"/>
</g>
</svg>
