<svg xmlns="http://www.w3.org/2000/svg" width="229" height="105" viewBox="0 0 229 105" fill="none"><g id="Group 18"><path id="Vector" d="M18.4254 100.597L10.0554 76.1126H0V76.9439C2.748 76.9439 3.76018 77.063 3.76018 79.6576V100.955C3.76018 103.547 2.75029 103.666 0 103.666V104.497H9.26306V103.666C6.51505 103.666 5.50287 103.547 5.50287 100.955V81.1415L13.479 104.5H18.762L25.8885 81.1415V100.952C25.8885 103.545 24.8786 103.664 22.1283 103.664V104.495H36.3377V103.664C33.5897 103.664 32.5776 103.545 32.5776 100.952V79.6553C32.5776 77.0607 33.5875 76.9416 36.3377 76.9416V76.1104H25.8885L18.4254 100.597Z" fill="url(#paint0_linear_1457_4860)"></path><path id="Vector_2" d="M65.3978 103.109H54.2157V90.3838H62.7048C64.7841 90.3838 65.6818 90.9563 65.6818 93.6105H66.4329V86.5618H65.6818C65.6818 88.4213 64.791 88.9961 62.7048 88.9961H54.2157V77.498H65.2077C67.7016 77.498 68.4137 78.3705 68.4137 83.278H69.3297V76.1125H43.7642V76.9438C46.5122 76.9438 47.5266 77.0629 47.5266 79.6575V100.954C47.5266 103.547 46.5167 103.666 43.7642 103.666V104.497H69.5152V97.3248H68.5992C68.6038 102.239 67.8916 103.109 65.3978 103.109Z" fill="url(#paint1_linear_1457_4860)"></path><path id="Vector_3" d="M79.6553 83.278H80.5713C80.5713 78.3705 81.2835 77.498 83.7773 77.498H89.7565V100.952C89.7565 103.544 88.3504 103.664 85.994 103.664V104.495H100.206V103.664C97.8493 103.664 96.4456 103.544 96.4456 100.952V77.498H102.422C104.916 77.498 105.628 78.3705 105.628 83.278H106.544V76.1125H79.6553V83.278Z" fill="url(#paint2_linear_1457_4860)"></path><path id="Vector_4" d="M115.588 76.9438C118.336 76.9438 119.348 77.0629 119.348 79.6575V100.954C119.348 103.547 118.338 103.666 115.588 103.666V104.497H129.786V103.666C127.038 103.666 126.026 103.547 126.026 100.954V79.6575C126.026 77.0629 127.036 76.9438 129.786 76.9438V76.1125H115.588V76.9438Z" fill="url(#paint3_linear_1457_4860)"></path><path id="Vector_5" d="M152.842 87.6516L150.765 86.7608C148.488 85.6937 146.668 84.1296 146.668 81.4778C146.668 78.6473 148.765 77.1039 151.596 77.1039C155.553 77.1039 159.73 78.8832 159.73 83.2869H160.646V76.1123H159.73C159.73 77.0833 159.572 77.7153 159.176 77.7153C159.096 77.7143 159.018 77.6947 158.947 77.6581C156.357 76.3547 153.494 75.6896 150.595 75.7184C143.787 75.7184 140.084 78.5283 140.084 82.9823C140.084 88.6615 146.061 91.2263 150.595 93.0354C153.98 94.4094 155.661 96.0834 155.661 98.5314C155.661 101.756 153.6 103.498 150.199 103.498C146.359 103.498 140.837 101.302 140.837 97.3154H139.921V104.481H140.837C140.837 103.194 141.014 102.72 141.392 102.72C141.553 102.741 141.709 102.794 141.85 102.878C144.581 104.185 147.569 104.868 150.597 104.877C158.198 104.877 162.235 102.324 162.235 97.2582C162.244 91.5721 157.138 89.4332 152.842 87.6516Z" fill="url(#paint4_linear_1457_4860)"></path><path id="Vector_6" d="M185.311 87.6516L183.234 86.7608C180.958 85.6937 179.137 84.1296 179.137 81.4778C179.137 78.6473 181.235 77.1039 184.066 77.1039C188.025 77.1039 192.2 78.8832 192.2 83.2869H193.116V76.1123H192.2C192.2 77.0833 192.042 77.7153 191.645 77.7153C191.566 77.7139 191.487 77.6944 191.416 77.6581C188.827 76.3547 185.964 75.6896 183.065 75.7184C176.257 75.7184 172.554 78.5283 172.554 82.9823C172.554 88.6615 178.533 91.2263 183.065 93.0354C186.449 94.4094 188.133 96.0834 188.133 98.5314C188.133 101.756 186.072 103.498 182.669 103.498C178.828 103.498 173.307 101.302 173.307 97.3154H172.391V104.481H173.307C173.307 103.194 173.486 102.72 173.861 102.72C174.023 102.74 174.179 102.794 174.319 102.878C177.051 104.185 180.039 104.868 183.067 104.877C190.668 104.877 194.705 102.324 194.705 97.2582C194.714 91.5721 189.612 89.4332 185.311 87.6516Z" fill="url(#paint5_linear_1457_4860)"></path><path id="Vector_7" d="M228.084 97.3248C228.084 102.235 227.372 103.105 224.878 103.105H213.701V90.3838H222.192C224.269 90.3838 225.169 90.9563 225.169 93.6105H225.922V86.5618H225.169C225.169 88.4213 224.278 88.9961 222.192 88.9961H213.701V77.498H224.693C227.187 77.498 227.899 78.3705 227.899 83.278H228.815V76.1125H203.251V76.9438C205.999 76.9438 207.012 77.0629 207.012 79.6575V100.954C207.012 103.547 206.002 103.666 203.251 103.666V104.497H229V97.3248H228.084Z" fill="url(#paint6_linear_1457_4860)"></path><path id="Vector_8" d="M99.2414 42.8391C98.4697 44.1718 97.5468 44.6825 94.808 44.6825V46.3222H134.194V44.6894C131.446 44.6894 130.53 44.1718 129.76 42.8391L118.876 23.9992C118.727 23.7411 118.649 23.4485 118.649 23.1508C118.649 22.853 118.727 22.5604 118.876 22.3023L129.758 3.47394C130.53 2.14115 131.453 1.63048 134.191 1.63048V0H94.8057V1.63964C97.5422 1.63964 98.4697 2.15031 99.2391 3.48309L110.121 22.3115C110.27 22.5696 110.348 22.8622 110.348 23.1599C110.348 23.4577 110.27 23.7503 110.121 24.0084L99.2414 42.8391ZM112.404 33.5096L114.5 29.8822L116.595 33.5096H112.404ZM117.534 35.1378L119.691 38.8728H109.308L111.465 35.1378H117.534ZM106.485 40.501H122.515L100.073 1.63048H128.927L117.445 21.526L115.441 18.0498L122.515 5.80057H106.485L128.927 44.6825H100.059L111.55 24.7801L113.558 28.2563L106.485 40.501ZM116.593 12.7919L114.5 16.417L112.404 12.7874L116.593 12.7919ZM111.463 11.1638L109.306 7.43334H119.689L117.532 11.1638H111.463Z" fill="url(#paint7_linear_1457_4860)"></path></g><defs><linearGradient id="paint0_linear_1457_4860" x1="-1.62819" y1="90.3038" x2="223.9" y2="90.3038" gradientUnits="userSpaceOnUse"><stop stop-color="#BF803F"></stop><stop offset="1" stop-color="#D9AF5D"></stop></linearGradient><linearGradient id="paint1_linear_1457_4860" x1="-1.62826" y1="90.3037" x2="223.9" y2="90.3037" gradientUnits="userSpaceOnUse"><stop stop-color="#BF803F"></stop><stop offset="1" stop-color="#D9AF5D"></stop></linearGradient><linearGradient id="paint2_linear_1457_4860" x1="-1.62835" y1="90.3037" x2="223.9" y2="90.3037" gradientUnits="userSpaceOnUse"><stop stop-color="#BF803F"></stop><stop offset="1" stop-color="#D9AF5D"></stop></linearGradient><linearGradient id="paint3_linear_1457_4860" x1="-1.62816" y1="90.3037" x2="223.9" y2="90.3037" gradientUnits="userSpaceOnUse"><stop stop-color="#BF803F"></stop><stop offset="1" stop-color="#D9AF5D"></stop></linearGradient><linearGradient id="paint4_linear_1457_4860" x1="-1.62821" y1="90.3034" x2="223.9" y2="90.3034" gradientUnits="userSpaceOnUse"><stop stop-color="#BF803F"></stop><stop offset="1" stop-color="#D9AF5D"></stop></linearGradient><linearGradient id="paint5_linear_1457_4860" x1="-1.62842" y1="90.3034" x2="223.9" y2="90.3034" gradientUnits="userSpaceOnUse"><stop stop-color="#BF803F"></stop><stop offset="1" stop-color="#D9AF5D"></stop></linearGradient><linearGradient id="paint6_linear_1457_4860" x1="-1.62813" y1="90.3037" x2="223.9" y2="90.3037" gradientUnits="userSpaceOnUse"><stop stop-color="#BF803F"></stop><stop offset="1" stop-color="#D9AF5D"></stop></linearGradient><linearGradient id="paint7_linear_1457_4860" x1="-1.62861" y1="23.1565" x2="223.9" y2="23.1565" gradientUnits="userSpaceOnUse"><stop stop-color="#BF803F"></stop><stop offset="1" stop-color="#D9AF5D"></stop></linearGradient></defs></svg>