<svg xmlns="http://www.w3.org/2000/svg" width="353" height="469" viewBox="0 0 353 469" fill="none"><path opacity="0.7" d="M39.7302 433.755C32.8282 447.243 24.5433 452.402 0 452.393V469H353V452.482C328.469 452.393 320.193 447.243 313.27 433.755L215.732 243.031C214.396 240.42 213.692 237.457 213.692 234.441C213.692 231.425 214.396 228.463 215.732 225.852L313.278 35.2453C320.193 21.7569 328.465 16.5979 353 16.6073V0H0.00830429V16.6073C24.5392 16.6073 32.8365 21.7663 39.7386 35.2453L137.276 225.852C138.613 228.463 139.316 231.425 139.316 234.441C139.316 237.457 138.613 240.42 137.276 243.031L39.7302 433.755ZM157.733 339.303L176.504 302.575L195.275 339.303H157.733ZM203.705 355.788L223.037 393.594H129.992L149.324 355.788H203.705ZM104.685 410.08H248.323L47.1514 16.5885H305.874L202.908 217.954L184.934 182.779L248.323 58.7985H104.685L305.944 452.393H47.0642L150.071 250.915L168.074 286.113L104.685 410.08ZM195.275 129.547L176.504 166.275L157.733 129.547H195.275ZM149.303 113.062L129.992 75.2839H223.058L203.705 113.062H149.303Z" fill="#FFFDFD"></path></svg>