<svg xmlns="http://www.w3.org/2000/svg" width="27" height="42" viewBox="0 0 27 42" fill="none"><path d="M3.03886 38.8437C2.51094 40.0516 1.87725 40.5136 0 40.5128V42H27V40.5208C25.1237 40.5128 24.4906 40.0516 23.9611 38.8437L16.5007 21.764C16.3985 21.5301 16.3447 21.2648 16.3447 20.9947C16.3447 20.7247 16.3985 20.4594 16.5007 20.2255L23.9618 3.1563C24.4906 1.94838 25.1234 1.48638 27 1.48722V0H0.000635172V1.48722C1.87693 1.48722 2.51158 1.94922 3.03949 3.1563L10.4999 20.2255C10.6021 20.4594 10.6559 20.7247 10.6559 20.9947C10.6559 21.2648 10.6021 21.5301 10.4999 21.764L3.03886 38.8437ZM12.0646 30.3853L13.5003 27.0963L14.936 30.3853H12.0646ZM15.5809 31.8616L17.0595 35.2472H9.94275L11.4214 31.8616H15.5809ZM8.00706 36.7235H18.9936L3.60648 1.48554H23.3954L15.5199 19.5182L14.1451 16.3682L18.9936 5.26554H8.00706L23.4008 40.5128H3.59981L11.4785 22.47L12.8555 25.6221L8.00706 36.7235ZM14.936 11.6012L13.5003 14.8903L12.0646 11.6012H14.936ZM11.4198 10.1249L9.94275 6.74184H17.0611L15.5809 10.1249H11.4198Z" fill="url(#paint0_linear_1453_2231)"></path><defs><linearGradient id="paint0_linear_1453_2231" x1="0" y1="21" x2="27.0006" y2="21" gradientUnits="userSpaceOnUse"><stop stop-color="#BF803F"></stop><stop offset="1" stop-color="#D9AF5D"></stop></linearGradient></defs></svg>